Coordinates
version=1
nRows=13
nColumns=36
inDegrees=yes

Units are S.I. units (second, meters, Newtons, ...)
If the header above contains a line with 'inDegrees', this indicates whether rotational values are in degrees (yes) or radians (no).

endheader
time	pelvis_tilt	pelvis_list	pelvis_rotation	pelvis_tx	pelvis_ty	pelvis_tz	hip_flexion_r	hip_adduction_r	hip_rotation_r	knee_angle_r	knee_angle_r_beta	ankle_angle_r	subtalar_angle_r	mtp_angle_r	hip_flexion_l	hip_adduction_l	hip_rotation_l	knee_angle_l	knee_angle_l_beta	ankle_angle_l	subtalar_angle_l	mtp_angle_l	lumbar_extension	lumbar_bending	lumbar_rotation	arm_flex_r	arm_add_r	arm_rot_r	elbow_flex_r	pro_sup_r	arm_flex_l	arm_add_l	arm_rot_l	elbow_flex_l	pro_sup_l
     14.98333330	     -1.74185566	      5.13820140	    185.73355828	      0.66347058	      1.06127611	      0.79692307	     14.48334332	      5.39091390	     -4.62749990	     25.99338190	      0.45367010	      0.50081255	    -18.10876218	     -7.49999987	     29.97962817	     -7.85720504	      0.27183022	     51.04201438	      0.89085121	     -9.19720892	    -11.23875616	     -7.49999987	    -19.50987093	      7.43741566	      6.59531585	     19.54234792	    -14.35011758	     -2.87140763	     21.80490310	     86.36797026	     13.05587714	     -5.57223538	     -3.09277942	     18.51467336	     84.18464459
     15.00000000	     -1.67609844	      5.34557456	    185.61041633	      0.66679488	      1.05922234	      0.79397248	     13.52973456	      5.82155596	     -4.74471871	     25.88087055	      0.45170640	     -0.48677163	    -19.84798336	     -7.49999987	     30.16323293	     -8.19016039	     -0.92571111	     46.01648055	      0.80313910	    -10.34398878	     -9.49415083	     -7.49999987	    -19.81043008	      7.52915417	      7.72406215	     20.15242979	    -15.14415425	     -2.23856640	     23.43289924	     85.17860337	     12.49267704	     -5.07141840	     -4.40508148	     17.43484602	     82.52373593
     15.01666670	     -0.93269268	      6.00746826	    185.61693115	      0.67128261	      1.05507969	      0.78953519	     13.51742082	      6.59303969	     -5.41613942	     26.02932920	      0.45429750	     -0.64452013	    -20.27667382	     -7.49999987	     31.37215578	     -8.71547295	     -1.21634505	     41.75893905	      0.72883098	    -11.78359118	     -7.62265388	     -7.49999987	    -19.12427864	      8.06384705	      8.68327711	     20.67935238	    -15.84538811	     -1.88593697	     24.47023510	     85.84200689	     11.78210235	     -4.70076126	     -5.53690568	     16.83149751	     82.84950798
     15.03333330	     -0.55276464	      6.35255608	    185.58704501	      0.67610804	      1.05237729	      0.78456883	     13.21850916	      7.13005604	     -6.10492863	     26.21265420	      0.45749712	     -0.55112126	    -20.20915219	     -7.49999987	     32.04699195	     -9.04728303	     -1.45858671	     37.82540738	      0.66017790	    -13.07268108	     -5.53107743	     -7.49999987	    -18.82427011	      8.11581538	      9.30568581	     21.43158957	    -16.13349325	     -1.68839440	     25.07979509	     85.92200333	     11.44744037	     -4.72541540	     -6.46251536	     15.78899462	     83.14453965
     15.05000000	     -0.11786835	      6.79895347	    185.82451312	      0.67845411	      1.05075928	      0.78256094	     13.03001229	      7.72839445	     -7.14578996	     26.26479546	      0.45840716	      0.19038734	    -19.54436739	     -7.49999987	     32.82704028	     -9.31885289	     -1.28858338	     34.14927063	      0.59601721	    -14.05484619	     -4.02285162	     -7.49999987	    -18.31861512	      8.21286542	      9.75542149	     21.87769535	    -16.36085709	     -1.56076224	     25.68785998	     85.89411915	     11.19633800	     -4.93858698	     -6.84141870	     14.64525502	     83.36094700
     15.06666670	      0.04082468	      7.24039828	    186.29769258	      0.67708054	      1.05088969	      0.78444673	     12.34720884	      8.26548182	     -8.44781991	     26.03433747	      0.45438491	      1.43006762	    -18.48187951	     -7.49999987	     32.84634568	     -9.49324670	     -1.27388212	     29.98529371	      0.52334210	    -14.60024348	     -2.79265801	     -7.49999987	    -17.79509798	      8.48183373	      9.76796682	     22.23678452	    -16.54193198	     -0.87293042	     25.85013851	     85.34702141	     10.77059319	     -5.09609794	     -8.09879352	     13.29890905	     82.86614781
     15.08333330	      0.11988024	      7.82578328	    186.84552647	      0.67435886	      1.05127153	      0.78801192	     11.36370891	      8.84725625	     -9.85094891	     25.61329824	      0.44703639	      2.74316709	    -16.91273507	     -7.49999987	     32.23663061	     -9.68286990	     -1.45033354	     24.80854585	      0.43299081	    -15.22517858	     -1.37350587	     -7.49999987	    -17.00808813	      9.05657031	      9.69166849	     22.26041204	    -16.78594935	     -0.29489988	     25.71651760	     85.07553616	     10.16687447	     -5.12776430	     -9.30572216	     11.84515247	     82.67720909
     15.10000000	      0.09928839	      8.69075924	    187.32492652	      0.67181518	      1.05170792	      0.79138134	     10.15951291	      9.69175323	    -10.98628169	     25.18806921	      0.43961474	      3.84377750	    -15.10011015	     -7.49999987	     31.36796155	     -9.99671810	     -1.63111867	     19.01234526	      0.33182802	    -16.33601884	      0.42925691	     -7.49999987	    -16.03906081	     10.11327411	      9.55605561	     22.13827361	    -17.09752228	      0.43344040	     25.22755546	     84.29473341	      9.33740588	     -4.95961800	    -10.09623777	     10.36848069	     81.98237541
     15.11666670	     -0.15388854	      9.65055870	    187.67523878	      0.66890704	      1.04914348	      0.79448361	      8.65474294	     10.72886979	    -11.53559145	     24.90674934	      0.43470478	      5.00853065	    -13.25350868	     -7.49999987	     30.69993494	    -10.34712023	     -1.65809290	     13.83625700	      0.24148824	    -17.61631687	      2.19376740	     -7.49999987	    -15.12276754	     11.35739579	      9.51050184	     21.89438561	    -17.47209907	      1.12572293	     24.53175683	     83.78029760	      8.41790785	     -4.59569501	    -11.16040639	      8.94956912	     81.48052766
     15.13333330	     -0.69418391	     10.52732362	    187.92957625	      0.66463491	      1.04330820	      0.79824537	      6.76426054	     11.82391437	    -11.40517413	     24.74211419	      0.43183136	      6.44648189	    -11.73511258	     -7.49999987	     30.29115532	    -10.70039652	     -1.54444981	     10.14416260	      0.17704904	    -18.19529893	      3.75343933	     -7.49999987	    -14.50720329	     12.52420979	      9.23037456	     21.84661145	    -17.67935666	      2.04089724	     23.65144905	     82.68569798	      7.39483926	     -4.24125919	    -11.84792476	      7.65983578	     80.43379009
     15.15000000	     -1.23877982	     11.13336261	    188.05754186	      0.65974891	      1.03564910	      0.80249070	      4.85640260	     12.59376308	    -11.00546906	     24.92424836	      0.43501020	      8.51043627	    -10.34668014	     -7.49999987	     30.17202994	    -10.94500106	     -1.42862437	      8.02674926	      0.14009320	    -17.73643501	      4.95141955	     -7.49999987	    -13.84482924	     13.38130658	      8.81312106	     21.89383138	    -17.77448018	      3.07445230	     22.39514433	     81.03202101	      6.25081396	     -3.88902695	    -11.99748961	      6.65492488	     78.84652902
     15.16666670	     -1.75311457	     11.49548631	    188.12797102	      0.65581874	      1.02942158	      0.80608603	      3.14455680	     13.01856417	    -10.61057352	     25.58931346	      0.44661777	     10.74145031	     -9.30699624	     -7.49999987	     30.02559147	    -11.10707139	     -1.36618753	      6.94531539	      0.12121862	    -16.58906608	      6.10331143	     -7.49999987	    -13.36021885	     13.87696935	      8.23045987	     21.91070628	    -17.67374415	      3.68953796	     21.42204710	     79.03869642	      5.23378538	     -3.55624296	    -12.73619071	      5.80326795	     76.93706377
     15.18333330	     -2.02395725	     11.72034480	    188.24206847	      0.65359170	      1.02347837	      0.80870126	      1.97747529	     13.17817606	    -10.42355140	     26.74766947	      0.46683490	     12.72141759	     -8.75167612	     -7.49999987	     29.97121572	    -11.13858094	     -0.98960685	      6.50426049	      0.11352076	    -15.28857517	      6.72499283	     -7.49999987	    -12.76604872	     14.13913866	      7.58551033	     21.87017370	    -17.55133860	      4.25433911	     20.35862549	     78.09035828	      4.39065843	     -3.31207646	    -13.37825772	      5.17443679	     76.19642163
